<svg width="50" height="27" viewBox="0 0 50 27" fill="none" xmlns="http://www.w3.org/2000/svg">
<path d="M31.168 -1.5374e-05C30.6992 -0.0117344 30.2891 0.167954 30.0781 0.687485C29.7188 1.55858 30.6133 2.41014 30.9336 2.85545C31.1562 3.16405 31.4453 3.5117 31.6055 3.85936C31.7109 4.08983 31.7266 4.3203 31.8164 4.56248C32.0391 5.16014 32.3945 5.83983 32.6797 6.39452C32.8242 6.67577 32.9844 6.96873 33.168 7.21873C33.2812 7.37108 33.4727 7.44139 33.5039 7.67577C33.3164 7.94139 33.3047 8.35155 33.1992 8.68748C32.7227 10.1914 32.9023 12.0625 33.5938 13.1719C33.8086 13.5156 34.3125 14.2461 35 13.9687C35.6016 13.7226 35.4688 12.9609 35.6406 12.2851C35.6797 12.1367 35.6562 12.0234 35.7344 11.9219V11.9531C35.9141 12.3203 36.0977 12.6875 36.2812 13.0508C36.6914 13.707 37.4141 14.3906 38.0234 14.8555C38.3398 15.0937 38.5898 15.5078 39 15.6484V15.6172H38.9688C38.8906 15.4922 38.7656 15.4414 38.6641 15.3437C38.4258 15.1094 38.1602 14.8164 37.9648 14.5469C37.4062 13.793 36.9141 12.9648 36.4688 12.1055C36.2539 11.6953 36.0664 11.2422 35.8867 10.8242C35.8164 10.6601 35.8164 10.418 35.6719 10.332C35.4727 10.6406 35.1836 10.8867 35.0312 11.25C34.7891 11.8281 34.7539 12.5351 34.6641 13.2656C34.6094 13.2851 34.6328 13.2695 34.6055 13.2969C34.1797 13.1914 34.0273 12.7539 33.8711 12.3789C33.4727 11.4297 33.3945 9.89842 33.75 8.80858C33.8398 8.52342 34.25 7.6328 34.0859 7.37108C34.0078 7.10936 33.7422 6.96092 33.5977 6.7617C33.4141 6.51561 33.2344 6.19139 33.1094 5.90623C32.7812 5.16405 32.4727 4.30467 32.125 3.55467C31.9609 3.1953 31.6836 2.83592 31.4531 2.51561C31.1992 2.16405 30.918 1.90624 30.7188 1.47655C30.6523 1.32811 30.5547 1.08592 30.6602 0.929673C30.6914 0.824204 30.7383 0.781234 30.8438 0.746078C31.0195 0.609359 31.5117 0.789048 31.6992 0.867173C32.1875 1.0703 32.5977 1.26561 33.0117 1.53905C33.2109 1.67186 33.4102 1.92577 33.6523 1.99998H33.9258C34.3594 2.09764 34.8398 2.02733 35.2383 2.15233C35.9492 2.36717 36.5859 2.70311 37.1602 3.06639C38.9219 4.17577 40.3633 5.7578 41.3438 7.64452C41.5039 7.9492 41.5742 8.24217 41.7148 8.56248C41.9922 9.21092 42.3477 9.8828 42.6289 10.5156C42.9063 11.1523 43.1797 11.789 43.5742 12.3164C43.7812 12.5937 44.5859 12.7461 44.9492 12.8984C45.2031 13.0078 45.625 13.1211 45.8633 13.2656C46.3281 13.543 46.7734 13.875 47.207 14.1836C47.4258 14.3359 48.0898 14.668 48.125 14.9453C47.0508 14.918 46.2305 15.0156 45.5312 15.3125C45.332 15.3984 45.0117 15.3984 44.9805 15.6484C45.0859 15.7617 45.1055 15.9336 45.1914 16.0742C45.3594 16.3437 45.6406 16.707 45.8945 16.8984C46.1719 17.1055 46.4531 17.3281 46.75 17.5117C47.2734 17.8281 47.8594 18.0117 48.3672 18.332C48.6641 18.5234 48.9648 18.7617 49.2539 18.9726C49.3984 19.082 49.4922 19.2461 49.6797 19.3125V19.2812C49.582 19.1562 49.5586 18.9844 49.4688 18.8555L49.0664 18.4531C48.6797 17.9414 48.1875 17.4883 47.6641 17.1133C47.2461 16.8125 46.3125 16.4062 46.1406 15.9219L46.1094 15.8906C46.4023 15.8594 46.75 15.75 47.0234 15.6758C47.4844 15.5547 47.8906 15.5859 48.3633 15.4648C48.5781 15.4023 48.793 15.3398 49.0078 15.2812V15.1562C48.7695 14.914 48.5977 14.5859 48.3359 14.3633C47.6523 13.7812 46.9062 13.1992 46.1367 12.7148C45.7109 12.4453 45.1836 12.2695 44.7344 12.043C44.582 11.9648 44.3164 11.9258 44.2148 11.7969C43.9766 11.4961 43.8477 11.1133 43.6641 10.7617C43.2812 10.0234 42.9063 9.21873 42.5664 8.44139C42.3359 7.91405 42.1836 7.39061 41.8945 6.91405C40.5078 4.6367 39.0156 3.2578 36.7031 1.90623C36.2109 1.61717 35.6211 1.5078 34.9961 1.35936C34.6562 1.33592 34.3242 1.31639 33.9844 1.29686C33.7812 1.21092 33.5664 0.960923 33.375 0.835923C32.8945 0.535141 31.9492 0.0117036 31.168 -1.5374e-05ZM34.4766 3.31248C34.2539 3.30858 34.0938 3.33983 33.9258 3.37498V3.40623H33.957C34.0625 3.62498 34.2539 3.76561 34.3867 3.95311C34.4883 4.16795 34.5859 4.3828 34.6875 4.59764L34.7188 4.56639C34.9062 4.43358 34.9961 4.21873 34.9961 3.89452C34.918 3.81639 34.9062 3.71483 34.8438 3.62108C34.7539 3.49217 34.5859 3.42186 34.4766 3.31248ZM1.86719 15.9961C1.56641 16.0078 1.23828 16.0664 0.882813 16.1797C0.289063 16.3594 -0.00390625 16.7148 -0.00390625 17.4375V25H2V17.6211L4.77734 23.9297C5.12109 24.7148 5.58984 24.9961 6.50781 24.9961C7.42969 24.9961 7.87891 24.7148 8.22266 23.9297L11 17.7812V25H13V17.4375C13 16.7148 12.7109 16.3594 12.1133 16.1797C10.6914 15.7305 9.73438 16.1172 9.30469 17.0898L6.45312 23.5039L3.69531 17.0898C3.38281 16.3594 2.75781 15.9609 1.86719 15.9961ZM26.2461 16C25.457 16 23 16.0937 23 18V19.2344C23 20.1094 23.7695 20.8242 25.4375 21C25.625 21.0117 25.8125 21.0273 26 21.0273C26 21.0273 27.9453 20.9883 28 21C29.125 21 29 21.875 29 22V23C29 23.1367 28.9688 24 27.9883 24H23V25H28.0078C28.6641 25 29.3008 24.8633 29.8086 24.625C30.6523 24.2383 31 23.7148 31 23.0273V21.5976C31 20.0625 29.0938 20 28 20H26C25.2148 20 25.0938 19.5234 25 19V18C25.0938 17.6015 25.2695 17.0625 25.9648 17H31V16H26.2461ZM33.9805 16C32.5039 16.2031 31.9844 16.9375 31.9844 18V23C31.9844 23.9726 32.5273 24.5586 33.6445 24.8633C34.0195 24.9687 34.3594 25.0117 34.6797 25.0117L36.9062 25H38.2148L39.3281 26H41.5781L40.0312 24.6055C40.7578 24.3047 40.9844 23.8437 40.9844 22.9805V18C40.9844 16.9375 40.293 16.2031 38.8164 16H33.9805ZM42 16V22.957C42 24.164 42.6836 24.8437 44.4922 24.9805C44.6602 24.9883 44.832 25 45 25H50V24H45.3789C44.3477 24 44 23.5664 44 22.9492V16H42ZM35.1719 17H37.7461C38.4258 17 38.8828 17.5469 38.9844 18C38.9844 18 39 22.6562 39 23C39 23.3437 38.8086 23.5 38.8086 23.5L38.2656 23H36L37.1133 24H35.1719C34.4766 24 34.0859 23.4844 33.9844 23V18.1015C33.9844 17.5703 34.3906 17 35.1719 17ZM14 19C14.0391 19.039 14 23.2617 14 23.3437C14.0156 24.2187 15.125 24.9844 16.8633 25H20V25.0664C20 25.2539 20.1367 25.8789 19 26C18.9883 26 14.0117 26 14 26V27H19.2148C20.0977 26.9726 22.0117 26.7734 22 25.2422C22 25.2148 22.0078 19 22 19H20V24C19.9688 24 17.5234 24.0078 17.0312 24C16.0664 23.9844 15.9844 23.4336 16 23.2226V19H14Z" fill="#1E90FF"/>
</svg>
