<svg width="43" height="46" viewBox="0 0 43 46" fill="none" xmlns="http://www.w3.org/2000/svg">
<path d="M31.9023 0C29.8633 0 28.0977 0.550781 26.875 1.09375C25.6758 0.691406 23.6875 0.00390601 21.3008 0.5C19.9102 0.742188 18.6328 1.31641 17.4609 2.19531C15.5312 1.26562 13.5156 0.695313 11.4023 0.601563C10.1016 0.5 4.80078 1.10156 2.89843 3.89844C2.19921 5 1.5 6.39844 1.19921 8.09766C0.898433 9.59766 0.898433 11.3008 1.39843 14.8008C1.69921 17.1992 2.10156 18.8008 3 22.0977C3.10156 22.3984 3.60156 24 5.10156 28.4023C5.39843 29.1992 5.99999 30.6992 7.19921 32.0977C7.99999 33.0977 8.80078 33.6992 9.80078 33.6992C11.1016 33.6992 12 32.8008 12.8008 31.8008C12.8594 31.7344 12.9219 31.6602 12.9805 31.5938C12.9062 31.7109 12.8398 31.8398 12.8008 32C12.6016 33 13.8008 33.8008 14.8008 34.1992C15.6016 34.5977 16.5 34.6992 17.1992 34.6992C18.0977 34.6992 18.8008 34.5 19.1992 34.4023C19.543 34.2852 20.2852 33.9648 21.0781 33.4375C21.1133 35.9922 21.1367 39.0078 21.1992 39.6992C21.5 42.3008 22.1992 44.0977 23.5 45.0977C24.5 45.8984 26.3008 46 26.4023 46C28.1992 46 31 44.8008 32.1992 42.9023C32.8008 42 33 41.1992 33.1992 40.0977C33.3984 39.5 33.5977 36 33.6992 35.3008C33.8359 34.1953 33.9414 33.1055 34.0469 32.0469C34.707 32.2188 35.5195 32.4023 36.4023 32.4023C38 32.4023 40.1016 31.3008 40.5 31.0977C41.3008 30.5 42.8984 29.1016 42.1992 27.9023C41.8008 27.1992 41.1992 27.1992 39.6992 27.4023C39.6992 27.4023 37.3008 27.6992 37.0977 27.5977C36.9531 27.543 36.7305 27.4023 36.4805 27.2188C37 26.4141 37.4609 25.6172 38 24.9023C39.1992 22.6016 39.9023 20.8008 40.4023 19.4023C41.3008 16.9023 41.8008 14.8984 42.0977 13.5C42.8008 10.5 43 9.10156 42.5977 7.5C41.8008 4.69922 38.8984 2.30078 37.6992 1.60156C36.8984 1.19922 34.9023 0 31.9023 0ZM31.9023 2C34.4023 2 36.1016 3 37 3.39844C38.1016 4 40.6016 6 40.8008 7.89844C40.9023 9 41 10.1016 40.3008 13C39.9023 14.3984 39.5 16.1992 38.5977 18.6992C38.0977 20.0977 37.5 21.8008 36.3008 23.9023C36.2695 23.9531 36.2344 24.0078 36.2031 24.0625C36.3203 23.6406 36.4023 23.3008 36.4023 23.3008C36.6016 22.3008 36.6016 21.5 36.5 20.3008C36.3984 19.6992 36.3008 18.1992 36.3008 17.5977C36.3008 17.3008 36.5977 14.1992 36.6992 13.0977C36.8008 11.3008 35.6992 9.09766 35.4023 8.69922C33.9023 6.39844 33.1016 5.10156 31.5 3.80078C31.1016 3.46094 30.418 2.89453 29.4883 2.32422C30.2227 2.14453 31.0352 2 31.9023 2ZM23.0664 2.41016C24.3711 2.44141 25.4766 2.80078 26.3008 3.10156C28.4023 3.80078 29.6992 4.89844 30.3008 5.39844C31.6016 6.5 32.3008 7.60156 33.8008 9.90234C33.9102 10.1211 34.1953 10.5859 34.4219 11.2344C32.375 11.0469 31.0156 11.7656 30.1992 12.5C29 13.5 29.0977 15 29.1992 16.0977C29.1992 16.8984 29.4023 17.9023 30.9023 21.3008C31.5 22.8008 32.0977 24.3984 32.6992 25.5C33.0117 26.1211 33.3945 26.6914 33.8047 27.1992C33.5664 27.3203 33.3242 27.4766 33.0977 27.6992C32.5 28.3984 32.3984 29.1016 32.1992 30.4023C32 31.4023 31.8008 33.5 31.6992 35.1992C31.6992 35.8984 31.4023 39.3008 31.3008 39.8008C31 40.8008 30.8984 41.3008 30.5 41.9023C29.8008 43 27.6016 43.9023 26.3008 43.8008C25.9023 43.8008 25.3008 43.8008 24.8008 43.4023C23.6992 42.6016 23.3008 40.8008 23.1992 39.4023C23.0977 38.4023 23.1992 31.1992 23 29.5977C22.8984 29.1992 22.8008 28.1992 22 27.5C21.6641 27.2188 20.9687 27.0742 20.3125 26.9766C20.3203 26.6406 20.3398 26.3047 20.4023 26C20.5 25.3984 20.6992 25.0977 20.9023 24.5977C21 24.3008 21.1992 23.9023 21.4023 23.4023C22.3008 20.6016 22.0977 16.8984 21.5977 14.5977C21.5 14.3984 21.0977 12.8008 19.6992 11.9023C18.1992 11 16.5977 11.5 15.6992 11.8008C15.3281 11.9023 14.9609 12.0625 14.5937 12.25C14.6562 11.832 14.7109 11.4102 14.8008 11C15.1992 9 15.6016 7.30078 16.9023 5.60156C18.3008 3.89844 19.8984 2.80078 21.6992 2.5C22.1758 2.42578 22.6328 2.39844 23.0664 2.41016ZM10.7187 2.58594C10.9531 2.58203 11.1523 2.58594 11.3008 2.60156C12.8633 2.68359 14.3594 3.05078 15.8437 3.67578C15.6602 3.87891 15.4766 4.08203 15.3008 4.30078C13.6016 6.30078 13.1992 8.39844 12.8008 10.5C12.3008 13 12.1992 15.5977 12.5977 18.1992L12.4023 20.0977C12.3008 21.0977 12.0977 23 13.1992 25C13.5859 25.6641 14.0117 26.2266 14.4805 26.707C13.4648 28.0508 12.3867 29.3203 11.3008 30.5C10.6992 31.1992 10.1992 31.6992 9.80078 31.6992C9.69921 31.6992 9.30078 31.5 8.69921 30.8008C7.59765 29.6016 7.19921 28.3008 7 27.8008C5.80078 24.1992 5.10156 21.8984 5 21.5977C4.19921 18.3984 3.80078 16.8008 3.39843 14.5C2.89843 11.3008 2.89843 9.69922 3.19921 8.40234C3.5 7 4 5.89844 4.5 5.10156C5.72656 3.17578 9.09375 2.62891 10.7187 2.58594ZM33.6641 13.125C33.9844 13.125 34.332 13.1641 34.6992 13.2422C34.6875 14.1758 34.3008 17.1055 34.3008 17.5C34.3008 18.3008 34.5 19.8984 34.5 20.5C34.6016 21.6016 34.6016 22.1992 34.5 23C34.5 23 34.3516 23.7148 34.1992 24.2227C33.7344 23.1719 33.2187 21.918 32.5977 20.5C31.0977 17.1016 31 16.4023 31 15.9023C31 15.1992 31 14.3008 31.5977 13.9023C32.1602 13.4023 32.8437 13.1328 33.6641 13.125ZM18.1406 13.418C18.3398 13.4414 18.5234 13.5 18.6992 13.5977C19.5 14 19.6992 15 19.6992 15C20.1992 17.1992 20.3984 20.5 19.5977 22.6992C19.5 23.0977 19.3008 23.3984 19.1992 23.6992C19 24.1992 18.8008 24.6992 18.5977 25.5977C18.5469 25.9688 18.5234 26.3359 18.5117 26.7031C17.8203 26.5586 17.168 26.3125 16.6992 26C15.8984 25.6016 15.3008 24.8984 14.9023 24.0977C14.1992 22.5977 14.3008 21.1992 14.4023 20.4023L14.5977 18.0977C14.457 16.9727 14.3906 15.8438 14.4062 14.7227C14.8672 14.3281 15.4687 13.9258 16.3008 13.6992C16.9023 13.5508 17.5586 13.3437 18.1406 13.418ZM32.8867 14.0898C32.625 14.1016 32.3477 14.1484 32.1992 14.1992C31.8008 14.3008 31.6992 14.3008 31.5977 14.5C31.5 14.6992 31.8008 15 31.9023 15.1992C32 15.1992 32.3008 15.5 32.6992 15.4023C33 15.3008 33.1992 15.1016 33.3008 15C33.4023 14.8984 33.8008 14.3984 33.5 14.1992C33.3984 14.0977 33.1484 14.0742 32.8867 14.0898ZM17.9141 14.8164C17.8047 14.8242 17.6992 14.8516 17.5977 14.9023C17.5 14.9023 17.3008 15 17.1992 15.1992C17.0977 15.3984 17.1992 15.5977 17.3008 15.6992C17.5 16 17.8008 16.3008 18.3008 16.3008C18.4023 16.3008 18.8008 16.3008 19.0977 16C19.0977 16 19.4023 15.6992 19.4023 15.4023C19.3008 15.1992 19.1016 15.1016 18.8008 15C18.5742 14.9258 18.2383 14.793 17.9141 14.8164ZM16.0742 27.9023C16.6875 28.2305 17.4258 28.4961 18.2344 28.6797C18.0195 29.1094 17.7109 29.4648 17.4023 29.6992C16.6992 30.1992 15.8008 30.5 14.9023 30.6992C14.6992 30.6992 14.6016 30.8008 14.4023 30.8008C13.918 30.9375 13.4492 31.0898 13.1289 31.4219C14.1094 30.332 15.0937 29.1289 16.0742 27.9023ZM35.3555 28.7031C35.793 29.0312 36.2227 29.2734 36.5977 29.4023C37.1992 29.6016 37.6992 29.6016 39.5 29.4023C39.1992 29.6992 38.3008 30.1992 37 30.4023C36.1641 30.4844 35.125 30.2852 34.2812 30.043C34.3594 29.4766 34.4492 29.1523 34.5977 29C34.6523 28.9492 34.9844 28.8477 35.3555 28.7031ZM20.2969 29.0039C20.5039 29.0391 20.668 29.0664 20.6992 29.0977C20.8984 29.3008 21 29.8008 21 30C21.0117 30.1719 21.0195 30.6055 21.0273 30.9062C20.2031 31.8711 18.8789 32.4062 18.5977 32.5C18.1992 32.6992 17 32.8984 15.8008 32.5C16.8008 32.1992 17.8008 31.9023 18.5977 31.3008C19.2969 30.8008 19.8984 30.0039 20.2969 29.0039Z" fill="#1E90FF"/>
</svg>
