<svg width="36" height="36" viewBox="0 0 36 36" fill="none" xmlns="http://www.w3.org/2000/svg">
<path d="M0 0V36H36V0H0ZM21.332 18.902H17.096V32H13.682V18.902H9.534V16H21.332V18.902ZM21.996 31.252V27.75C21.996 27.75 23.908 29.192 26.204 29.192C28.5 29.192 28.41 27.692 28.41 27.486C28.41 25.308 21.908 25.308 21.908 20.484C21.908 13.922 31.382 16.512 31.382 16.512L31.264 19.63C31.264 19.63 29.676 18.57 27.88 18.57C26.086 18.57 25.438 19.424 25.438 20.336C25.438 22.69 32 22.454 32 27.192C32 34.488 21.996 31.252 21.996 31.252Z" fill="#1E90FF"/>
</svg>
